<svg id="Courser_Icons" data-name="Courser Icons" xmlns="http://www.w3.org/2000/svg" viewBox="0 0 54.9 68.33"><defs><style>.cls-1{fill:#fff;}</style></defs><path class="cls-1" d="M53.14,37.11H41.21a16.54,16.54,0,0,0,4.57-4.67,1.75,1.75,0,0,0,.09-1.77,1.77,1.77,0,0,0-1.49-1,6.26,6.26,0,0,1,0-12.5,1.77,1.77,0,0,0,1.49-.95,1.75,1.75,0,0,0-.09-1.77A16.42,16.42,0,0,0,33.91,7.1a7.11,7.11,0,0,1,1.87-3.36L37,2.5,34.54,0,33.29,1.25a10.52,10.52,0,0,0-3,5.81,16.49,16.49,0,0,0-7.64,30.05H8.32a1.77,1.77,0,0,0-1.77,1.77v7.31H1.76A1.76,1.76,0,0,0,0,48V58.79H3.53V49.71H44.82v5.55H8.32A1.77,1.77,0,0,0,6.55,57v11.3h3.53V58.79h41.3v6H13.11v3.53h40a1.76,1.76,0,0,0,1.76-1.76V57a1.76,1.76,0,0,0-1.76-1.77H48.35V49.71h4.79A1.76,1.76,0,0,0,54.9,48V38.88a1.76,1.76,0,0,0-1.76-1.77M19,23.47a13,13,0,0,1,22.16-9.14,9.79,9.79,0,0,0,0,18.28A13,13,0,0,1,19,23.47m32.4,22.72H10.08V40.64h41.3Z"/></svg>